<svg xmlns="http://www.w3.org/2000/svg" xmlns:xlink="http://www.w3.org/1999/xlink" xmlns:s="https://github.com/nturley/netlistsvg" width="485" height="378.5">
  <style>svg {
    stroke:#000;
    fill:none;
  }
  text {
    fill:#000;
    stroke:none;
    font-size:10px;
    font-weight: bold;
    font-family: "Courier New", monospace;
  }
  .nodelabel {
    text-anchor: middle;
  }
  .inputPortLabel {
    text-anchor: end;
  }
  .portlabel {
    font-size: 11px;
  }
  .outPortLabel {
    text-anchor: start;
    font-size: 11px;
  }
  .splitjoinBody {
    fill:#000;
  }</style>
  <g s:type="not" transform="translate(65,132)" s:width="30" s:height="20" id="cell_c0">
    <s:alias val="$_NOT_"/>
    <s:alias val="$not"/>
    <s:alias val="$logic_not"/>
    <path d="M0,0 L0,20 L20,10 Z" class="cell_c0"/>
    <circle cx="23" cy="10" r="3" class="cell_c0"/>
    <g s:x="0" s:y="10" s:pid="A"/>
    <g s:x="25" s:y="10" s:pid="Y"/>
  </g>
  <g s:type="not" transform="translate(130,133)" s:width="30" s:height="20" id="cell_c1">
    <s:alias val="$_NOT_"/>
    <s:alias val="$not"/>
    <s:alias val="$logic_not"/>
    <path d="M0,0 L0,20 L20,10 Z" class="cell_c1"/>
    <circle cx="23" cy="10" r="3" class="cell_c1"/>
    <g s:x="0" s:y="10" s:pid="A"/>
    <g s:x="25" s:y="10" s:pid="Y"/>
  </g>
  <g s:type="not" transform="translate(325,346.5)" s:width="30" s:height="20" id="cell_c2">
    <s:alias val="$_NOT_"/>
    <s:alias val="$not"/>
    <s:alias val="$logic_not"/>
    <path d="M0,0 L0,20 L20,10 Z" class="cell_c2"/>
    <circle cx="23" cy="10" r="3" class="cell_c2"/>
    <g s:x="0" s:y="10" s:pid="A"/>
    <g s:x="25" s:y="10" s:pid="Y"/>
  </g>
  <g s:type="and" transform="translate(130,13)" s:width="30" s:height="25" id="cell_c3">
    <s:alias val="$and"/>
    <s:alias val="$logic_and"/>
    <s:alias val="$_AND_"/>
    <path d="M0,0 L0,25 L15,25 A15 12.5 0 0 0 15,0 Z" class="cell_c3"/>
    <g s:x="0" s:y="5" s:pid="A"/>
    <g s:x="0" s:y="20" s:pid="B"/>
    <g s:x="30" s:y="12.5" s:pid="Y"/>
  </g>
  <g s:type="and" transform="translate(195,20.5)" s:width="30" s:height="25" id="cell_c4">
    <s:alias val="$and"/>
    <s:alias val="$logic_and"/>
    <s:alias val="$_AND_"/>
    <path d="M0,0 L0,25 L15,25 A15 12.5 0 0 0 15,0 Z" class="cell_c4"/>
    <g s:x="0" s:y="5" s:pid="A"/>
    <g s:x="0" s:y="20" s:pid="B"/>
    <g s:x="30" s:y="12.5" s:pid="Y"/>
  </g>
  <g s:type="and" transform="translate(130,73)" s:width="30" s:height="25" id="cell_c5">
    <s:alias val="$and"/>
    <s:alias val="$logic_and"/>
    <s:alias val="$_AND_"/>
    <path d="M0,0 L0,25 L15,25 A15 12.5 0 0 0 15,0 Z" class="cell_c5"/>
    <g s:x="0" s:y="5" s:pid="A"/>
    <g s:x="0" s:y="20" s:pid="B"/>
    <g s:x="30" s:y="12.5" s:pid="Y"/>
  </g>
  <g s:type="and" transform="translate(195,123)" s:width="30" s:height="25" id="cell_c6">
    <s:alias val="$and"/>
    <s:alias val="$logic_and"/>
    <s:alias val="$_AND_"/>
    <path d="M0,0 L0,25 L15,25 A15 12.5 0 0 0 15,0 Z" class="cell_c6"/>
    <g s:x="0" s:y="5" s:pid="A"/>
    <g s:x="0" s:y="20" s:pid="B"/>
    <g s:x="30" s:y="12.5" s:pid="Y"/>
  </g>
  <g s:type="and" transform="translate(130,188)" s:width="30" s:height="25" id="cell_c7">
    <s:alias val="$and"/>
    <s:alias val="$logic_and"/>
    <s:alias val="$_AND_"/>
    <path d="M0,0 L0,25 L15,25 A15 12.5 0 0 0 15,0 Z" class="cell_c7"/>
    <g s:x="0" s:y="5" s:pid="A"/>
    <g s:x="0" s:y="20" s:pid="B"/>
    <g s:x="30" s:y="12.5" s:pid="Y"/>
  </g>
  <g s:type="and" transform="translate(195,222.5)" s:width="30" s:height="25" id="cell_c8">
    <s:alias val="$and"/>
    <s:alias val="$logic_and"/>
    <s:alias val="$_AND_"/>
    <path d="M0,0 L0,25 L15,25 A15 12.5 0 0 0 15,0 Z" class="cell_c8"/>
    <g s:x="0" s:y="5" s:pid="A"/>
    <g s:x="0" s:y="20" s:pid="B"/>
    <g s:x="30" s:y="12.5" s:pid="Y"/>
  </g>
  <g s:type="and" transform="translate(130,290.5)" s:width="30" s:height="25" id="cell_c9">
    <s:alias val="$and"/>
    <s:alias val="$logic_and"/>
    <s:alias val="$_AND_"/>
    <path d="M0,0 L0,25 L15,25 A15 12.5 0 0 0 15,0 Z" class="cell_c9"/>
    <g s:x="0" s:y="5" s:pid="A"/>
    <g s:x="0" s:y="20" s:pid="B"/>
    <g s:x="30" s:y="12.5" s:pid="Y"/>
  </g>
  <g s:type="and" transform="translate(195,298)" s:width="30" s:height="25" id="cell_c10">
    <s:alias val="$and"/>
    <s:alias val="$logic_and"/>
    <s:alias val="$_AND_"/>
    <path d="M0,0 L0,25 L15,25 A15 12.5 0 0 0 15,0 Z" class="cell_c10"/>
    <g s:x="0" s:y="5" s:pid="A"/>
    <g s:x="0" s:y="20" s:pid="B"/>
    <g s:x="30" s:y="12.5" s:pid="Y"/>
  </g>
  <g s:type="or" transform="translate(260,115.5)" s:width="30" s:height="25" id="cell_c11">
    <s:alias val="$or"/>
    <s:alias val="$logic_or"/>
    <s:alias val="$_OR_"/>
    <path d="M0,25 L0,25 L15,25 A15 12.5 0 0 0 15,0 L0,0" class="cell_c11"/>
    <path d="M0,0 A30 25 0 0 1 0,25" class="cell_c11"/>
    <g s:x="3" s:y="5" s:pid="A"/>
    <g s:x="3" s:y="20" s:pid="B"/>
    <g s:x="30" s:y="12.5" s:pid="Y"/>
  </g>
  <g s:type="or" transform="translate(260,290.5)" s:width="30" s:height="25" id="cell_c12">
    <s:alias val="$or"/>
    <s:alias val="$logic_or"/>
    <s:alias val="$_OR_"/>
    <path d="M0,25 L0,25 L15,25 A15 12.5 0 0 0 15,0 L0,0" class="cell_c12"/>
    <path d="M0,0 A30 25 0 0 1 0,25" class="cell_c12"/>
    <g s:x="3" s:y="5" s:pid="A"/>
    <g s:x="3" s:y="20" s:pid="B"/>
    <g s:x="30" s:y="12.5" s:pid="Y"/>
  </g>
  <g s:type="or" transform="translate(325,283)" s:width="30" s:height="25" id="cell_c13">
    <s:alias val="$or"/>
    <s:alias val="$logic_or"/>
    <s:alias val="$_OR_"/>
    <path d="M0,25 L0,25 L15,25 A15 12.5 0 0 0 15,0 L0,0" class="cell_c13"/>
    <path d="M0,0 A30 25 0 0 1 0,25" class="cell_c13"/>
    <g s:x="3" s:y="5" s:pid="A"/>
    <g s:x="3" s:y="20" s:pid="B"/>
    <g s:x="30" s:y="12.5" s:pid="Y"/>
  </g>
  <g s:type="and" transform="translate(390,336.5)" s:width="30" s:height="25" id="cell_c14">
    <s:alias val="$and"/>
    <s:alias val="$logic_and"/>
    <s:alias val="$_AND_"/>
    <path d="M0,0 L0,25 L15,25 A15 12.5 0 0 0 15,0 Z" class="cell_c14"/>
    <g s:x="0" s:y="5" s:pid="A"/>
    <g s:x="0" s:y="20" s:pid="B"/>
    <g s:x="30" s:y="12.5" s:pid="Y"/>
  </g>
  <g s:type="inputExt" transform="translate(12,304.5)" s:width="18" s:height="12" id="cell_A0">
    <text x="-3" y="9.5" class="portlabel inputPortLabel cell_A0" s:attribute="ref">A0</text>
    <s:alias val="$_inputExt_"/>
    <line x1="0" y1="6" x2="18" y2="6" class="cell_A0"/>
    <g s:x="18" s:y="6" s:pid="Y"/>
  </g>
  <g s:type="inputExt" transform="translate(77,236.5)" s:width="18" s:height="12" id="cell_A1">
    <text x="-3" y="9.5" class="portlabel inputPortLabel cell_A1" s:attribute="ref">A1</text>
    <s:alias val="$_inputExt_"/>
    <line x1="0" y1="6" x2="18" y2="6" class="cell_A1"/>
    <g s:x="18" s:y="6" s:pid="Y"/>
  </g>
  <g s:type="inputExt" transform="translate(77,12)" s:width="18" s:height="12" id="cell_D0">
    <text x="-3" y="9.5" class="portlabel inputPortLabel cell_D0" s:attribute="ref">D0</text>
    <s:alias val="$_inputExt_"/>
    <line x1="0" y1="6" x2="18" y2="6" class="cell_D0"/>
    <g s:x="18" s:y="6" s:pid="Y"/>
  </g>
  <g s:type="inputExt" transform="translate(77,68.5)" s:width="18" s:height="12" id="cell_D1">
    <text x="-3" y="9.5" class="portlabel inputPortLabel cell_D1" s:attribute="ref">D1</text>
    <s:alias val="$_inputExt_"/>
    <line x1="0" y1="6" x2="18" y2="6" class="cell_D1"/>
    <g s:x="18" s:y="6" s:pid="Y"/>
  </g>
  <g s:type="inputExt" transform="translate(77,187)" s:width="18" s:height="12" id="cell_D2">
    <text x="-3" y="9.5" class="portlabel inputPortLabel cell_D2" s:attribute="ref">D2</text>
    <s:alias val="$_inputExt_"/>
    <line x1="0" y1="6" x2="18" y2="6" class="cell_D2"/>
    <g s:x="18" s:y="6" s:pid="Y"/>
  </g>
  <g s:type="inputExt" transform="translate(77,286)" s:width="18" s:height="12" id="cell_D3">
    <text x="-3" y="9.5" class="portlabel inputPortLabel cell_D3" s:attribute="ref">D3</text>
    <s:alias val="$_inputExt_"/>
    <line x1="0" y1="6" x2="18" y2="6" class="cell_D3"/>
    <g s:x="18" s:y="6" s:pid="Y"/>
  </g>
  <g s:type="inputExt" transform="translate(272,350.5)" s:width="18" s:height="12" id="cell_Sn">
    <text x="-3" y="9.5" class="portlabel inputPortLabel cell_Sn" s:attribute="ref">Sn</text>
    <s:alias val="$_inputExt_"/>
    <line x1="0" y1="6" x2="18" y2="6" class="cell_Sn"/>
    <g s:x="18" s:y="6" s:pid="Y"/>
  </g>
  <g s:type="outputExt" transform="translate(455,343)" s:width="18" s:height="12" id="cell_Y">
    <text x="21" y="9.5" class="outPortLabel cell_Y" s:attribute="ref">Y</text>
    <s:alias val="$_outputExt_"/>
    <line x1="0" y1="6" x2="18" y2="6" class="cell_Y"/>
    <g s:x="0" s:y="6" s:pid="A"/>
  </g>
  <line x1="30" x2="40" y1="310.5" y2="310.5" class="net_2"/>
  <line x1="40" x2="40" y1="310.5" y2="142" class="net_2"/>
  <circle cx="40" cy="310.5" r="2" style="fill:#000" class="net_2"/>
  <circle cx="40" cy="142" r="2" style="fill:#000" class="net_2"/>
  <line x1="40" x2="65" y1="142" y2="142" class="net_2"/>
  <line x1="30" x2="40" y1="310.5" y2="310.5" class="net_2"/>
  <line x1="40" x2="40" y1="310.5" y2="93" class="net_2"/>
  <line x1="40" x2="130" y1="93" y2="93" class="net_2"/>
  <line x1="30" x2="130" y1="310.5" y2="310.5" class="net_2"/>
  <line x1="95" x2="115" y1="242.5" y2="242.5" class="net_3"/>
  <line x1="115" x2="115" y1="242.5" y2="143" class="net_3"/>
  <circle cx="115" cy="242.5" r="2" style="fill:#000" class="net_3"/>
  <line x1="115" x2="130" y1="143" y2="143" class="net_3"/>
  <line x1="95" x2="195" y1="242.5" y2="242.5" class="net_3"/>
  <line x1="95" x2="170" y1="242.5" y2="242.5" class="net_3"/>
  <line x1="170" x2="170" y1="242.5" y2="318" class="net_3"/>
  <circle cx="170" cy="242.5" r="2" style="fill:#000" class="net_3"/>
  <line x1="170" x2="195" y1="318" y2="318" class="net_3"/>
  <line x1="290" x2="325" y1="356.5" y2="356.5" class="net_8"/>
  <line x1="95" x2="130" y1="18" y2="18" class="net_4"/>
  <line x1="90" x2="105" y1="142" y2="142" class="net_9"/>
  <line x1="105" x2="105" y1="142" y2="33" class="net_9"/>
  <circle cx="105" cy="142" r="2" style="fill:#000" class="net_9"/>
  <line x1="105" x2="130" y1="33" y2="33" class="net_9"/>
  <line x1="90" x2="105" y1="142" y2="142" class="net_9"/>
  <line x1="105" x2="105" y1="142" y2="208" class="net_9"/>
  <line x1="105" x2="130" y1="208" y2="208" class="net_9"/>
  <line x1="160" x2="195" y1="25.5" y2="25.5" class="net_12"/>
  <line x1="155" x2="170" y1="143" y2="143" class="net_10"/>
  <line x1="170" x2="170" y1="143" y2="40.5" class="net_10"/>
  <circle cx="170" cy="143" r="2" style="fill:#000" class="net_10"/>
  <line x1="170" x2="195" y1="40.5" y2="40.5" class="net_10"/>
  <line x1="155" x2="195" y1="143" y2="143" class="net_10"/>
  <line x1="95" x2="115" y1="74.5" y2="74.5" class="net_5"/>
  <line x1="115" x2="115" y1="74.5" y2="78" class="net_5"/>
  <line x1="115" x2="130" y1="78" y2="78" class="net_5"/>
  <line x1="160" x2="180" y1="85.5" y2="85.5" class="net_14"/>
  <line x1="180" x2="180" y1="85.5" y2="128" class="net_14"/>
  <line x1="180" x2="195" y1="128" y2="128" class="net_14"/>
  <line x1="95" x2="130" y1="193" y2="193" class="net_6"/>
  <line x1="160" x2="170" y1="200.5" y2="200.5" class="net_16"/>
  <line x1="170" x2="170" y1="200.5" y2="227.5" class="net_16"/>
  <line x1="170" x2="195" y1="227.5" y2="227.5" class="net_16"/>
  <line x1="95" x2="105" y1="292" y2="292" class="net_7"/>
  <line x1="105" x2="105" y1="292" y2="295.5" class="net_7"/>
  <line x1="105" x2="130" y1="295.5" y2="295.5" class="net_7"/>
  <line x1="160" x2="195" y1="303" y2="303" class="net_18"/>
  <line x1="225" x2="235" y1="33" y2="33" class="net_13"/>
  <line x1="235" x2="235" y1="33" y2="120.5" class="net_13"/>
  <line x1="235" x2="263" y1="120.5" y2="120.5" class="net_13"/>
  <line x1="225" x2="263" y1="135.5" y2="135.5" class="net_15"/>
  <line x1="225" x2="235" y1="235" y2="235" class="net_17"/>
  <line x1="235" x2="235" y1="235" y2="295.5" class="net_17"/>
  <line x1="235" x2="263" y1="295.5" y2="295.5" class="net_17"/>
  <line x1="225" x2="263" y1="310.5" y2="310.5" class="net_19"/>
  <line x1="290" x2="300" y1="128" y2="128" class="net_20"/>
  <line x1="300" x2="300" y1="128" y2="288" class="net_20"/>
  <line x1="300" x2="328" y1="288" y2="288" class="net_20"/>
  <line x1="290" x2="328" y1="303" y2="303" class="net_21"/>
  <line x1="355" x2="365" y1="295.5" y2="295.5" class="net_22"/>
  <line x1="365" x2="365" y1="295.5" y2="341.5" class="net_22"/>
  <line x1="365" x2="390" y1="341.5" y2="341.5" class="net_22"/>
  <line x1="350" x2="390" y1="356.5" y2="356.5" class="net_11"/>
  <line x1="420" x2="455" y1="349" y2="349" class="net_23"/>
</svg>
