<?xml version="1.0" encoding="utf-8" standalone="no"?>
<!DOCTYPE svg PUBLIC "-//W3C//DTD SVG 1.1//EN"
  "http://www.w3.org/Graphics/SVG/1.1/DTD/svg11.dtd">
<svg xmlns:xlink="http://www.w3.org/1999/xlink" width="324.455937pt" height="237.50875pt" viewBox="0 0 324.455937 237.50875" xmlns="http://www.w3.org/2000/svg" version="1.1">
 <metadata>
  <rdf:RDF xmlns:dc="http://purl.org/dc/elements/1.1/" xmlns:cc="http://creativecommons.org/ns#" xmlns:rdf="http://www.w3.org/1999/02/22-rdf-syntax-ns#">
   <cc:Work>
    <dc:type rdf:resource="http://purl.org/dc/dcmitype/StillImage"/>
    <dc:date>2026-09-02T13:37:12.161917</dc:date>
    <dc:format>image/svg+xml</dc:format>
    <dc:creator>
     <cc:Agent>
      <dc:title>Matplotlib v3.11.1, https://matplotlib.org/</dc:title>
     </cc:Agent>
    </dc:creator>
   </cc:Work>
  </rdf:RDF>
 </metadata>
 <defs>
  <style type="text/css">*{stroke-linejoin: round; stroke-linecap: butt}</style>
 </defs>
 <g id="figure_1">
  <g id="patch_1">
   <path d="M 0 237.50875 
L 324.455937 237.50875 
L 324.455937 0 
L 0 0 
z
" style="fill: #ffffff"/>
  </g>
  <g id="axes_1">
   <g id="patch_2">
    <path d="M 41.621094 199.369297 
L 317.255937 199.369297 
L 317.255937 27.90875 
L 41.621094 27.90875 
z
" style="fill: #ffffff"/>
   </g>
   <g id="matplotlib.axis_1">
    <g id="xtick_1">
     <g id="line2d_1">
      <defs>
       <path id="m636ee1f9eb" d="M 0 0 
L 0 -4 
" style="stroke: #000000; stroke-width: 0.8"/>
      </defs>
      <g>
       <use xlink:href="#m636ee1f9eb" x="41.621094" y="199.369297" style="stroke: #000000; stroke-width: 0.8"/>
      </g>
     </g>
     <g id="text_1">
      <text style="font-size: 10px; font-family: 'Microsoft YaHei', 'SimHei', 'PingFang SC', 'DejaVu Sans', sans-serif; text-anchor: middle" x="41.621094" y="210.989414" transform="rotate(-0 41.621094 210.989414)">0</text>
     </g>
    </g>
    <g id="xtick_2">
     <g id="line2d_2">
      <g>
       <use xlink:href="#m636ee1f9eb" x="172.875781" y="199.369297" style="stroke: #000000; stroke-width: 0.8"/>
      </g>
     </g>
     <g id="text_2">
      <text style="font-size: 10px; font-family: 'Microsoft YaHei', 'SimHei', 'PingFang SC', 'DejaVu Sans', sans-serif; text-anchor: middle" x="172.875781" y="210.989414" transform="rotate(-0 172.875781 210.989414)">2.5</text>
     </g>
    </g>
    <g id="xtick_3">
     <g id="line2d_3">
      <g>
       <use xlink:href="#m636ee1f9eb" x="304.130469" y="199.369297" style="stroke: #000000; stroke-width: 0.8"/>
      </g>
     </g>
     <g id="text_3">
      <text style="font-size: 10px; font-family: 'Microsoft YaHei', 'SimHei', 'PingFang SC', 'DejaVu Sans', sans-serif; text-anchor: middle" x="304.130469" y="210.989414" transform="rotate(-0 304.130469 210.989414)">5.0</text>
     </g>
    </g>
    <g id="text_4">
     <!-- $v_I$/V -->
     <g transform="translate(167.858516 227.267734)">
      <text>
       <tspan x="0" y="-0.921875" style="font-style: oblique; font-size: 12px; font-family: 'DejaVu Sans'">v</tspan>
       <tspan x="7.101562" y="0.878119" style="font-style: oblique; font-size: 8.4px; font-family: 'DejaVu Sans'">I</tspan>
       <tspan x="9.907031" y="-0.921875" style="font-size: 12px; font-family: 'Microsoft YaHei'">/</tspan>
       <tspan x="15.033984" y="-0.921875" style="font-size: 12px; font-family: 'Microsoft YaHei'">V</tspan>
      </text>
     </g>
    </g>
   </g>
   <g id="matplotlib.axis_2">
    <g id="ytick_1">
     <g id="line2d_4">
      <defs>
       <path id="m4d10b84b37" d="M 0 0 
L 4 0 
" style="stroke: #000000; stroke-width: 0.8"/>
      </defs>
      <g>
       <use xlink:href="#m4d10b84b37" x="41.621094" y="199.369297" style="stroke: #000000; stroke-width: 0.8"/>
      </g>
     </g>
     <g id="text_5">
      <text style="font-size: 10px; font-family: 'Microsoft YaHei', 'SimHei', 'PingFang SC', 'DejaVu Sans', sans-serif; text-anchor: end" x="38.121094" y="203.429355" transform="rotate(-0 38.121094 203.429355)">0</text>
     </g>
    </g>
    <g id="ytick_2">
     <g id="line2d_5">
      <g>
       <use xlink:href="#m4d10b84b37" x="41.621094" y="117.721417" style="stroke: #000000; stroke-width: 0.8"/>
      </g>
     </g>
     <g id="text_6">
      <text style="font-size: 10px; font-family: 'Microsoft YaHei', 'SimHei', 'PingFang SC', 'DejaVu Sans', sans-serif; text-anchor: end" x="38.121094" y="121.781476" transform="rotate(-0 38.121094 121.781476)">2.5</text>
     </g>
    </g>
    <g id="ytick_3">
     <g id="line2d_6">
      <g>
       <use xlink:href="#m4d10b84b37" x="41.621094" y="36.073538" style="stroke: #000000; stroke-width: 0.8"/>
      </g>
     </g>
     <g id="text_7">
      <text style="font-size: 10px; font-family: 'Microsoft YaHei', 'SimHei', 'PingFang SC', 'DejaVu Sans', sans-serif; text-anchor: end" x="38.121094" y="40.133597" transform="rotate(-0 38.121094 40.133597)">5.0</text>
     </g>
    </g>
    <g id="text_8">
     <!-- $v_O$/V -->
     <g transform="translate(16.944141 127.319023) rotate(-90)">
      <text>
       <tspan x="0" y="-0.921875" style="font-style: oblique; font-size: 12px; font-family: 'DejaVu Sans'">v</tspan>
       <tspan x="7.101562" y="0.878119" style="font-style: oblique; font-size: 8.4px; font-family: 'DejaVu Sans'">O</tspan>
       <tspan x="14.041406" y="-0.921875" style="font-size: 12px; font-family: 'Microsoft YaHei'">/</tspan>
       <tspan x="19.168359" y="-0.921875" style="font-size: 12px; font-family: 'Microsoft YaHei'">V</tspan>
      </text>
     </g>
    </g>
   </g>
   <g id="line2d_7">
    <path d="M 41.621094 36.073538 
L 134.603866 36.168995 
L 135.6313 36.42607 
L 137.172451 37.106075 
L 138.713602 38.126298 
L 140.254753 39.472053 
L 141.795904 41.128655 
L 143.337055 43.081417 
L 145.391923 46.120412 
L 147.446791 49.624997 
L 149.501659 53.560361 
L 152.070244 59.032318 
L 154.638829 65.054988 
L 157.72113 72.913402 
L 161.317149 82.803371 
L 165.426885 94.829597 
L 171.077772 112.132984 
L 181.352111 143.677993 
L 185.461847 155.534518 
L 189.057866 165.218888 
L 192.140168 172.858649 
L 194.708753 178.669192 
L 197.277338 183.901828 
L 199.332206 187.626153 
L 201.387073 190.902295 
L 203.441941 193.695441 
L 204.983092 195.452394 
L 206.524243 196.903397 
L 208.065394 198.033762 
L 209.606545 198.828805 
L 210.633979 199.165291 
L 211.661413 199.341867 
L 214.229998 199.369297 
L 304.130469 199.369297 
L 304.130469 199.369297 
" clip-path="url(#pb2eb46f873)" style="fill: none; stroke: #1d4ed8; stroke-width: 2; stroke-linecap: round"/>
   </g>
   <g id="line2d_8">
    <path d="M 41.621094 117.721417 
L 317.255937 117.721417 
" clip-path="url(#pb2eb46f873)" style="fill: none; stroke-dasharray: 3.6,2.7; stroke-dashoffset: 0; stroke: #94a3b8; stroke-width: 0.9"/>
   </g>
   <g id="line2d_9">
    <path d="M 172.875781 199.369297 
L 172.875781 27.90875 
" clip-path="url(#pb2eb46f873)" style="fill: none; stroke-dasharray: 3.6,2.7; stroke-dashoffset: 0; stroke: #94a3b8; stroke-width: 0.9"/>
   </g>
   <g id="line2d_10">
    <defs>
     <path id="m33fdfdce2e" d="M 0 2.5 
C 0.663008 2.5 1.29895 2.236584 1.767767 1.767767 
C 2.236584 1.29895 2.5 0.663008 2.5 0 
C 2.5 -0.663008 2.236584 -1.29895 1.767767 -1.767767 
C 1.29895 -2.236584 0.663008 -2.5 0 -2.5 
C -0.663008 -2.5 -1.29895 -2.236584 -1.767767 -1.767767 
C -2.236584 -1.29895 -2.5 -0.663008 -2.5 0 
C -2.5 0.663008 -2.236584 1.29895 -1.767767 1.767767 
C -1.29895 2.236584 -0.663008 2.5 0 2.5 
z
" style="stroke: #1d4ed8"/>
    </defs>
    <g clip-path="url(#pb2eb46f873)">
     <use xlink:href="#m33fdfdce2e" x="172.875781" y="117.721417" style="fill: #1d4ed8; stroke: #1d4ed8"/>
    </g>
   </g>
   <g id="patch_3">
    <path d="M 41.621094 199.369297 
L 41.621094 27.90875 
" style="fill: none; stroke: #000000; stroke-width: 0.8; stroke-linejoin: miter; stroke-linecap: square"/>
   </g>
   <g id="patch_4">
    <path d="M 41.621094 199.369297 
L 317.255937 199.369297 
" style="fill: none; stroke: #000000; stroke-width: 0.8; stroke-linejoin: miter; stroke-linecap: square"/>
   </g>
   <g id="text_9">
    <text style="font-weight: 700; font-size: 13px; font-family: 'Microsoft YaHei', 'SimHei', 'PingFang SC', 'DejaVu Sans', sans-serif; text-anchor: middle" x="179.438516" y="17.90875" transform="rotate(-0 179.438516 17.90875)">CMOS 反相器 VTC</text>
   </g>
  </g>
 </g>
 <defs>
  <clipPath id="pb2eb46f873">
   <rect x="41.621094" y="27.90875" width="275.634844" height="171.460547"/>
  </clipPath>
 </defs>
</svg>
