<svg xmlns="http://www.w3.org/2000/svg" width="480" height="290"><rect width="100%" height="100%" fill="#ffffff"/><text x="240" y="22" text-anchor="middle" font-size="15" font-weight="700" font-family="Microsoft YaHei, PingFang SC, Noto Sans SC, Segoe UI, sans-serif" fill="#0f172a">fig_5_3_9</text><line x1="70" y1="102" x2="446" y2="102" stroke="#111" stroke-width="1.2"/><line x1="70" y1="102" x2="70" y2="56" stroke="#111" stroke-width="1.2"/><text x="58" y="82" text-anchor="end" font-size="14" font-family="Microsoft YaHei, PingFang SC, Noto Sans SC, Segoe UI, sans-serif">CLK</text><text x="450" y="106" font-size="12" font-family="Microsoft YaHei, PingFang SC, Noto Sans SC, Segoe UI, sans-serif">t</text><text x="66" y="106" text-anchor="end" font-size="11" fill="#64748b">O</text><text x="88" y="83" text-anchor="middle" font-size="13" font-family="Microsoft YaHei, PingFang SC, Noto Sans SC, Segoe UI, sans-serif" fill="#334155">0</text><text x="124" y="83" text-anchor="middle" font-size="13" font-family="Microsoft YaHei, PingFang SC, Noto Sans SC, Segoe UI, sans-serif" fill="#334155">1</text><text x="160" y="83" text-anchor="middle" font-size="13" font-family="Microsoft YaHei, PingFang SC, Noto Sans SC, Segoe UI, sans-serif" fill="#334155">0</text><text x="196" y="83" text-anchor="middle" font-size="13" font-family="Microsoft YaHei, PingFang SC, Noto Sans SC, Segoe UI, sans-serif" fill="#334155">1</text><text x="232" y="83" text-anchor="middle" font-size="13" font-family="Microsoft YaHei, PingFang SC, Noto Sans SC, Segoe UI, sans-serif" fill="#334155">0</text><text x="268" y="83" text-anchor="middle" font-size="13" font-family="Microsoft YaHei, PingFang SC, Noto Sans SC, Segoe UI, sans-serif" fill="#334155">1</text><text x="304" y="83" text-anchor="middle" font-size="13" font-family="Microsoft YaHei, PingFang SC, Noto Sans SC, Segoe UI, sans-serif" fill="#334155">0</text><text x="340" y="83" text-anchor="middle" font-size="13" font-family="Microsoft YaHei, PingFang SC, Noto Sans SC, Segoe UI, sans-serif" fill="#334155">1</text><text x="376" y="83" text-anchor="middle" font-size="13" font-family="Microsoft YaHei, PingFang SC, Noto Sans SC, Segoe UI, sans-serif" fill="#334155">0</text><text x="412" y="83" text-anchor="middle" font-size="13" font-family="Microsoft YaHei, PingFang SC, Noto Sans SC, Segoe UI, sans-serif" fill="#334155">1</text><path d="M70,94 L106,94 L106,62 L142,62 L142,94 L178,94 L178,62 L214,62 L214,94 L250,94 L250,62 L286,62 L286,94 L322,94 L322,62 L358,62 L358,94 L394,94 L394,62 L430,62" fill="none" stroke="#111" stroke-width="1.8"/><line x1="70" y1="58" x2="70" y2="102" stroke="#94a3b8" stroke-width="1" stroke-dasharray="3 3"/><line x1="106" y1="58" x2="106" y2="102" stroke="#94a3b8" stroke-width="1" stroke-dasharray="3 3"/><line x1="142" y1="58" x2="142" y2="102" stroke="#94a3b8" stroke-width="1" stroke-dasharray="3 3"/><line x1="178" y1="58" x2="178" y2="102" stroke="#94a3b8" stroke-width="1" stroke-dasharray="3 3"/><line x1="214" y1="58" x2="214" y2="102" stroke="#94a3b8" stroke-width="1" stroke-dasharray="3 3"/><line x1="250" y1="58" x2="250" y2="102" stroke="#94a3b8" stroke-width="1" stroke-dasharray="3 3"/><line x1="286" y1="58" x2="286" y2="102" stroke="#94a3b8" stroke-width="1" stroke-dasharray="3 3"/><line x1="322" y1="58" x2="322" y2="102" stroke="#94a3b8" stroke-width="1" stroke-dasharray="3 3"/><line x1="358" y1="58" x2="358" y2="102" stroke="#94a3b8" stroke-width="1" stroke-dasharray="3 3"/><line x1="394" y1="58" x2="394" y2="102" stroke="#94a3b8" stroke-width="1" stroke-dasharray="3 3"/><line x1="430" y1="58" x2="430" y2="102" stroke="#94a3b8" stroke-width="1" stroke-dasharray="3 3"/><line x1="70" y1="172" x2="446" y2="172" stroke="#111" stroke-width="1.2"/><line x1="70" y1="172" x2="70" y2="126" stroke="#111" stroke-width="1.2"/><text x="58" y="152" text-anchor="end" font-size="14" font-family="Microsoft YaHei, PingFang SC, Noto Sans SC, Segoe UI, sans-serif">D</text><text x="450" y="176" font-size="12" font-family="Microsoft YaHei, PingFang SC, Noto Sans SC, Segoe UI, sans-serif">t</text><text x="66" y="176" text-anchor="end" font-size="11" fill="#64748b">O</text><text x="88" y="153" text-anchor="middle" font-size="13" font-family="Microsoft YaHei, PingFang SC, Noto Sans SC, Segoe UI, sans-serif" fill="#334155">0</text><text x="124" y="153" text-anchor="middle" font-size="13" font-family="Microsoft YaHei, PingFang SC, Noto Sans SC, Segoe UI, sans-serif" fill="#334155">1</text><text x="160" y="153" text-anchor="middle" font-size="13" font-family="Microsoft YaHei, PingFang SC, Noto Sans SC, Segoe UI, sans-serif" fill="#334155">1</text><text x="196" y="153" text-anchor="middle" font-size="13" font-family="Microsoft YaHei, PingFang SC, Noto Sans SC, Segoe UI, sans-serif" fill="#334155">0</text><text x="232" y="153" text-anchor="middle" font-size="13" font-family="Microsoft YaHei, PingFang SC, Noto Sans SC, Segoe UI, sans-serif" fill="#334155">0</text><text x="268" y="153" text-anchor="middle" font-size="13" font-family="Microsoft YaHei, PingFang SC, Noto Sans SC, Segoe UI, sans-serif" fill="#334155">0</text><text x="304" y="153" text-anchor="middle" font-size="13" font-family="Microsoft YaHei, PingFang SC, Noto Sans SC, Segoe UI, sans-serif" fill="#334155">1</text><text x="340" y="153" text-anchor="middle" font-size="13" font-family="Microsoft YaHei, PingFang SC, Noto Sans SC, Segoe UI, sans-serif" fill="#334155">0</text><text x="376" y="153" text-anchor="middle" font-size="13" font-family="Microsoft YaHei, PingFang SC, Noto Sans SC, Segoe UI, sans-serif" fill="#334155">1</text><text x="412" y="153" text-anchor="middle" font-size="13" font-family="Microsoft YaHei, PingFang SC, Noto Sans SC, Segoe UI, sans-serif" fill="#334155">1</text><path d="M70,164 L106,164 L106,132 L142,132 L142,132 L178,132 L178,164 L214,164 L214,164 L250,164 L250,164 L286,164 L286,132 L322,132 L322,164 L358,164 L358,132 L394,132 L394,132 L430,132" fill="none" stroke="#111" stroke-width="1.8"/><line x1="70" y1="128" x2="70" y2="172" stroke="#94a3b8" stroke-width="1" stroke-dasharray="3 3"/><line x1="106" y1="128" x2="106" y2="172" stroke="#94a3b8" stroke-width="1" stroke-dasharray="3 3"/><line x1="142" y1="128" x2="142" y2="172" stroke="#94a3b8" stroke-width="1" stroke-dasharray="3 3"/><line x1="178" y1="128" x2="178" y2="172" stroke="#94a3b8" stroke-width="1" stroke-dasharray="3 3"/><line x1="214" y1="128" x2="214" y2="172" stroke="#94a3b8" stroke-width="1" stroke-dasharray="3 3"/><line x1="250" y1="128" x2="250" y2="172" stroke="#94a3b8" stroke-width="1" stroke-dasharray="3 3"/><line x1="286" y1="128" x2="286" y2="172" stroke="#94a3b8" stroke-width="1" stroke-dasharray="3 3"/><line x1="322" y1="128" x2="322" y2="172" stroke="#94a3b8" stroke-width="1" stroke-dasharray="3 3"/><line x1="358" y1="128" x2="358" y2="172" stroke="#94a3b8" stroke-width="1" stroke-dasharray="3 3"/><line x1="394" y1="128" x2="394" y2="172" stroke="#94a3b8" stroke-width="1" stroke-dasharray="3 3"/><line x1="430" y1="128" x2="430" y2="172" stroke="#94a3b8" stroke-width="1" stroke-dasharray="3 3"/><line x1="70" y1="242" x2="446" y2="242" stroke="#111" stroke-width="1.2"/><line x1="70" y1="242" x2="70" y2="196" stroke="#111" stroke-width="1.2"/><text x="58" y="222" text-anchor="end" font-size="14" font-family="Microsoft YaHei, PingFang SC, Noto Sans SC, Segoe UI, sans-serif">Q</text><text x="450" y="246" font-size="12" font-family="Microsoft YaHei, PingFang SC, Noto Sans SC, Segoe UI, sans-serif">t</text><text x="66" y="246" text-anchor="end" font-size="11" fill="#64748b">O</text><text x="88" y="223" text-anchor="middle" font-size="13" font-family="Microsoft YaHei, PingFang SC, Noto Sans SC, Segoe UI, sans-serif" fill="#334155">0</text><text x="124" y="223" text-anchor="middle" font-size="13" font-family="Microsoft YaHei, PingFang SC, Noto Sans SC, Segoe UI, sans-serif" fill="#334155">0</text><text x="160" y="223" text-anchor="middle" font-size="13" font-family="Microsoft YaHei, PingFang SC, Noto Sans SC, Segoe UI, sans-serif" fill="#334155">1</text><text x="196" y="223" text-anchor="middle" font-size="13" font-family="Microsoft YaHei, PingFang SC, Noto Sans SC, Segoe UI, sans-serif" fill="#334155">1</text><text x="232" y="223" text-anchor="middle" font-size="13" font-family="Microsoft YaHei, PingFang SC, Noto Sans SC, Segoe UI, sans-serif" fill="#334155">0</text><text x="268" y="223" text-anchor="middle" font-size="13" font-family="Microsoft YaHei, PingFang SC, Noto Sans SC, Segoe UI, sans-serif" fill="#334155">0</text><text x="304" y="223" text-anchor="middle" font-size="13" font-family="Microsoft YaHei, PingFang SC, Noto Sans SC, Segoe UI, sans-serif" fill="#334155">0</text><text x="340" y="223" text-anchor="middle" font-size="13" font-family="Microsoft YaHei, PingFang SC, Noto Sans SC, Segoe UI, sans-serif" fill="#334155">0</text><text x="376" y="223" text-anchor="middle" font-size="13" font-family="Microsoft YaHei, PingFang SC, Noto Sans SC, Segoe UI, sans-serif" fill="#334155">1</text><text x="412" y="223" text-anchor="middle" font-size="13" font-family="Microsoft YaHei, PingFang SC, Noto Sans SC, Segoe UI, sans-serif" fill="#334155">1</text><path d="M70,234 L106,234 L106,234 L142,234 L142,202 L178,202 L178,202 L214,202 L214,234 L250,234 L250,234 L286,234 L286,234 L322,234 L322,234 L358,234 L358,202 L394,202 L394,202 L430,202" fill="none" stroke="#111" stroke-width="1.8"/><line x1="70" y1="198" x2="70" y2="242" stroke="#94a3b8" stroke-width="1" stroke-dasharray="3 3"/><line x1="106" y1="198" x2="106" y2="242" stroke="#94a3b8" stroke-width="1" stroke-dasharray="3 3"/><line x1="142" y1="198" x2="142" y2="242" stroke="#94a3b8" stroke-width="1" stroke-dasharray="3 3"/><line x1="178" y1="198" x2="178" y2="242" stroke="#94a3b8" stroke-width="1" stroke-dasharray="3 3"/><line x1="214" y1="198" x2="214" y2="242" stroke="#94a3b8" stroke-width="1" stroke-dasharray="3 3"/><line x1="250" y1="198" x2="250" y2="242" stroke="#94a3b8" stroke-width="1" stroke-dasharray="3 3"/><line x1="286" y1="198" x2="286" y2="242" stroke="#94a3b8" stroke-width="1" stroke-dasharray="3 3"/><line x1="322" y1="198" x2="322" y2="242" stroke="#94a3b8" stroke-width="1" stroke-dasharray="3 3"/><line x1="358" y1="198" x2="358" y2="242" stroke="#94a3b8" stroke-width="1" stroke-dasharray="3 3"/><line x1="394" y1="198" x2="394" y2="242" stroke="#94a3b8" stroke-width="1" stroke-dasharray="3 3"/><line x1="430" y1="198" x2="430" y2="242" stroke="#94a3b8" stroke-width="1" stroke-dasharray="3 3"/></svg>